<svg viewBox="0 0 500 500" width="50" height="50" class="icon-svg" xmlns="http://www.w3.org/2000/svg">
 <g>
  <title>Layer 1</title>
  <path fill="#000" stroke="#000" stroke-width="1.5" class="unch-svg" id="log-unch-svg" d="m456 109c5 5 10 12 14 21 4 9 5 18 5 25l0 330c0 7-2 14-8 19-5 5-11 8-19 8l-384 0c-8 0-14-3-19-8-6-5-8-12-8-19l0-458c0-7 2-14 8-19 5-5 11-8 19-8l256 0c8 0 16 2 25 6 9 4 17 8 22 13z m-127-70l0 107 108 0c-2-5-4-9-7-11l-89-90c-2-2-6-4-12-6z m110 436l0-292-119 0c-8 0-14-3-19-8-6-5-8-12-8-20l0-118-220 0 0 438z m-293-246c0-3 1-5 3-7 2-2 4-3 6-3l202 0c2 0 4 1 6 3 2 2 3 4 3 7l0 18c0 3-1 5-3 6-2 2-4 3-6 3l-202 0c-2 0-4-1-6-3-2-1-3-3-3-6z m211 64c2 0 4 0 6 2 2 2 3 4 3 7l0 18c0 3-1 5-3 7-2 1-4 2-6 2l-202 0c-2 0-4-1-6-2-2-2-3-4-3-7l0-18c0-3 1-5 3-7 2-2 4-2 6-2z m0 73c2 0 4 1 6 2 2 2 3 4 3 7l0 18c0 3-1 5-3 7-2 1-4 2-6 2l-202 0c-2 0-4-1-6-2-2-2-3-4-3-7l0-18c0-3 1-5 3-7 2-1 4-2 6-2z"/>
  <path fill="#ff0000" stroke-width="0" stroke-opacity="null" class="ch-svg" id="log-ch-svg" d="m79.381068,174.554653l44.377726,-54.390905l121.572066,148.931138l202.656712,-248.218563l44.393412,54.352466l-247.050124,302.647907" stroke="#000"/>
 </g>
</svg>